/* XPM */
static char * pixmap_zoom_selection_xpm[] = {
"24 24 160 2",
"  	c None",
". 	c #000000",
"+ 	c #30302D",
"@ 	c #7E7E75",
"# 	c #B3B3A5",
"$ 	c #CFCFBE",
"% 	c #D2D2C1",
"& 	c #BABAAA",
"* 	c #848479",
"= 	c #31312D",
"- 	c #87877F",
"; 	c #D7D7CC",
"> 	c #DADACD",
", 	c #DADACC",
"' 	c #DADACB",
") 	c #DCDCCC",
"! 	c #DFDFCF",
"~ 	c #DEDECD",
"{ 	c #D9D9C8",
"] 	c #7E7E73",
"^ 	c #A6A69D",
"/ 	c #E2E2D9",
"( 	c #E9E9E2",
"_ 	c #EAEAE2",
": 	c #E6E6DB",
"< 	c #D4D4C3",
"[ 	c #D8D8C7",
"} 	c #DADAC9",
"| 	c #D9D9C7",
"1 	c #929285",
"2 	c #86867E",
"3 	c #E0E0D8",
"4 	c #F95AF1",
"5 	c #FC46F5",
"6 	c #FC47F4",
"7 	c #F85BF0",
"8 	c #E670D9",
"9 	c #E775D9",
"0 	c #E676D8",
"a 	c #E470D6",
"b 	c #FF0000",
"c 	c #C4C4B4",
"d 	c #717168",
"e 	c #30302C",
"f 	c #D6D6CA",
"g 	c #E7E7DF",
"h 	c #FC42F4",
"i 	c #FD44F7",
"j 	c #F54BEB",
"k 	c #E56FD8",
"l 	c #E95ADC",
"m 	c #DD64D1",
"n 	c #BFBFAE",
"o 	c #B9B9AA",
"p 	c #282824",
"q 	c #D9D9CC",
"r 	c #E6E6DD",
"s 	c #FC44F5",
"t 	c #F947F0",
"u 	c #E94BDD",
"v 	c #E269D5",
"w 	c #DB6CCF",
"x 	c #B9B9A9",
"y 	c #B4B4A4",
"z 	c #68685F",
"A 	c #B3B3A6",
"B 	c #E4E4D8",
"C 	c #FA40F1",
"D 	c #DC67D0",
"E 	c #B3B3A4",
"F 	c #AEAE9F",
"G 	c #909083",
"H 	c #D1D1C0",
"I 	c #DBDBCC",
"J 	c #0000FF",
"K 	c #ED73E0",
"L 	c #EA3CDF",
"M 	c #DC62CF",
"N 	c #A9A99A",
"O 	c #A1A192",
"P 	c #D5D5C3",
"Q 	c #DFDFCE",
"R 	c #EA77DD",
"S 	c #E56BD9",
"T 	c #F038E5",
"U 	c #C859BC",
"V 	c #9B9B8D",
"W 	c #BDBDAE",
"X 	c #DBDBCA",
"Y 	c #E775DA",
"Z 	c #DD68D0",
"` 	c #E83BDD",
" .	c #D962CC",
"..	c #CD5EC1",
"+.	c #A3A394",
"@.	c #828275",
"#.	c #DADAC8",
"$.	c #D5D5C4",
"%.	c #E66CD9",
"&.	c #E36DD5",
"*.	c #D969CC",
"=.	c #E44CD8",
"-.	c #EA35DF",
";.	c #E731DC",
">.	c #D059C3",
",.	c #CE55C2",
"'.	c #9D9D8F",
").	c #98988A",
"!.	c #57574F",
"~.	c #DE7CD0",
"{.	c #DE6DD1",
"].	c #D967CD",
"^.	c #E14FD5",
"/.	c #D45AC8",
"(.	c #CB5ABE",
"_.	c #BE66B1",
":.	c #989889",
"<.	c #1F1F1C",
"[.	c #7B7B71",
"}.	c #CACAB9",
"|.	c #C5C5B4",
"1.	c #C0C0AF",
"2.	c #AFAFA0",
"3.	c #AAAA9B",
"4.	c #9C9C8E",
"5.	c #979789",
"6.	c #929284",
"7.	c #53534B",
"8.	c #8D8D82",
"9.	c #BFBFAF",
"0.	c #B5B5A5",
"a.	c #AEAE9E",
"b.	c #ACAC9D",
"c.	c #A1A193",
"d.	c #A0A091",
"e.	c #9C9C8D",
"f.	c #969689",
"g.	c #919184",
"h.	c #65655C",
"i.	c #6E6E65",
"j.	c #B4B4A5",
"k.	c #A5A596",
"l.	c #A0A092",
"m.	c #969688",
"n.	c #919183",
"o.	c #241D14",
"p.	c #211100",
"q.	c #262623",
"r.	c #8C8C80",
"s.	c #9D9D8E",
"t.	c #7F7F74",
"u.	c #55554E",
"v.	c #E9D1B8",
"w.	c #A6825C",
"x.	c #582D00",
"y.	c #0B0600",
"z.	c #160B00",
"A.	c #4D2800",
"B.	c #371C00",
"C.	c #372B1F",
"              . . . . . .                       ",
"          . . . . . . . . . .                   ",
"        . . + @ # $ % & * = . .                 ",
"      . . - ; > , ' ) ! ~ { ] . .               ",
"    . . ^ / ( _ : < [ } | < $ 1 . .             ",
"  . . 2 3 4 5 6 7 8 9 0 0 a b c d . .           ",
"  . e f g h b i j b k l l m b n o p .           ",
". . @ q r b b s t b u b v w b x y z . .         ",
". . A , B b b C b b b b D b b E F G . .         ",
". . H I J b b K b L b b M b b J N O . .         ",
". . P Q J R b S b T b b b b U J J V . .         ",
". . W J X Y b b Z ` M  .b ....+.J @.. .         ",
". . * #.$.%.&.b *.=.-.;.b >.,.'.).!.. .         ",
"  . e < $ ~.{.b *.].^./.b (._.:.1 <..           ",
"  . . [.}.|.1.b 2.E 3.+.b 4.5.6.7.. .           ",
"    . . 8.9.& 0.a.b.c.d.e.f.g.h.. . .           ",
"      . . i.j.2.3.k.l.V m.n.7.. . o.p..         ",
"        . . q.h.r.s.:.t.u.<.. . o.v.w.x.y.      ",
"          . . . . . . . . . . . z.w.v.w.x.y.    ",
"              . . . . . .       . A.w.v.w.x..   ",
"                                  y.x.w.v.w.B.. ",
"                                    y.x.w.v.w.. ",
"                                      y.A.w.v.. ",
"                                        . z.C.. "};
