/* XPM */
static char * pixmap_zoom_tool_xpm[] = {
"24 24 167 2",
"  	c None",
". 	c #000000",
"+ 	c #30302D",
"@ 	c #7E7E75",
"# 	c #B3B3A5",
"$ 	c #CFCFBE",
"% 	c #D2D2C1",
"& 	c #BABAAA",
"* 	c #848479",
"= 	c #31312D",
"- 	c #87877F",
"; 	c #D7D7CC",
"> 	c #DADACD",
", 	c #DADACC",
"' 	c #DADACB",
") 	c #DCDCCC",
"! 	c #DFDFCF",
"~ 	c #DEDECD",
"{ 	c #D9D9C8",
"] 	c #7E7E73",
"^ 	c #A6A69D",
"/ 	c #E2E2D9",
"( 	c #E9E9E2",
"_ 	c #EAEAE2",
": 	c #E6E6DB",
"< 	c #D4D4C3",
"[ 	c #D8D8C7",
"} 	c #DADAC9",
"| 	c #D9D9C7",
"1 	c #929285",
"2 	c #86867E",
"3 	c #E0E0D8",
"4 	c #F0F0EB",
"5 	c #F8F8F5",
"6 	c #F7F7F3",
"7 	c #F0F0E9",
"8 	c #D3D3C2",
"9 	c #CECEBD",
"0 	c #C9C9B8",
"a 	c #C4C4B4",
"b 	c #717168",
"c 	c #30302C",
"d 	c #D6D6CA",
"e 	c #E7E7DF",
"f 	c #F6F6F3",
"g 	c #FEFEFD",
"h 	c #FCFCFA",
"i 	c #E3E3D8",
"j 	c #D0D0BF",
"k 	c #C0C0B0",
"l 	c #C4C4B3",
"m 	c #BFBFAE",
"n 	c #B9B9AA",
"o 	c #282824",
"p 	c #D9D9CC",
"q 	c #E6E6DD",
"r 	c #F3F3EE",
"s 	c #FAFAF7",
"t 	c #F9F9F5",
"u 	c #ECECE3",
"v 	c #C7C7B6",
"w 	c #CACAB9",
"x 	c #C8C8B9",
"y 	c #C1C1B1",
"z 	c #BEBEAE",
"A 	c #B9B9A9",
"B 	c #B4B4A4",
"C 	c #68685F",
"D 	c #B3B3A6",
"E 	c #E4E4D8",
"F 	c #EDEDE4",
"G 	c #F2F2EA",
"H 	c #EFEFE6",
"I 	c #E7E7DC",
"J 	c #C7C7B8",
"K 	c #C8C8B8",
"L 	c #BCBCAD",
"M 	c #B3B3A4",
"N 	c #AEAE9F",
"O 	c #909083",
"P 	c #D1D1C0",
"Q 	c #DBDBCC",
"R 	c #E0E0CF",
"S 	c #E2E2D1",
"T 	c #C5C5B5",
"U 	c #BDBDAD",
"V 	c #BBBBAC",
"W 	c #ADAD9E",
"X 	c #A9A99A",
"Y 	c #A1A192",
"Z 	c #D5D5C3",
"` 	c #DFDFCE",
" .	c #D3D3C3",
"..	c #CFCFBF",
"+.	c #C7C7B7",
"@.	c #CCCCBB",
"#.	c #B2B2A2",
"$.	c #AFAFA0",
"%.	c #9E9E90",
"&.	c #A6A697",
"*.	c #A3A395",
"=.	c #9B9B8D",
"-.	c #BDBDAE",
";.	c #DBDBCA",
">.	c #D5D5C5",
",.	c #D1D1C1",
"'.	c #CDCDBD",
").	c #ACAC9D",
"!.	c #A8A899",
"~.	c #A3A394",
"{.	c #9E9E8F",
"].	c #828275",
"^.	c #DADAC8",
"/.	c #D5D5C4",
"(.	c #CBCBBA",
"_.	c #C6C6B5",
":.	c #BCBCAC",
"<.	c #B8B8A9",
"[.	c #ACAC9E",
"}.	c #A7A798",
"|.	c #A2A294",
"1.	c #9D9D8F",
"2.	c #98988A",
"3.	c #57574F",
"4.	c #BABAAB",
"5.	c #A2A293",
"6.	c #9D9D8E",
"7.	c #989889",
"8.	c #1F1F1C",
"9.	c #7B7B71",
"0.	c #C5C5B4",
"a.	c #C0C0AF",
"b.	c #AAAA9B",
"c.	c #A1A193",
"d.	c #9C9C8E",
"e.	c #979789",
"f.	c #929284",
"g.	c #53534B",
"h.	c #8D8D82",
"i.	c #BFBFAF",
"j.	c #B5B5A5",
"k.	c #AEAE9E",
"l.	c #A0A091",
"m.	c #9C9C8D",
"n.	c #969689",
"o.	c #919184",
"p.	c #65655C",
"q.	c #6E6E65",
"r.	c #B4B4A5",
"s.	c #A5A596",
"t.	c #A0A092",
"u.	c #969688",
"v.	c #919183",
"w.	c #241D14",
"x.	c #211100",
"y.	c #262623",
"z.	c #8C8C80",
"A.	c #7F7F74",
"B.	c #55554E",
"C.	c #E9D1B8",
"D.	c #A6825C",
"E.	c #582D00",
"F.	c #0B0600",
"G.	c #160B00",
"H.	c #4D2800",
"I.	c #371C00",
"J.	c #372B1F",
"              . . . . . .                       ",
"          . . . . . . . . . .                   ",
"        . . + @ # $ % & * = . .                 ",
"      . . - ; > , ' ) ! ~ { ] . .               ",
"    . . ^ / ( _ : < [ } | < $ 1 . .             ",
"  . . 2 3 4 5 6 7 % < 8 8 9 0 a b . .           ",
"  . c d e f g h i j j $ $ k l m n o .           ",
". . @ p q r s t u % v w x y z A B C . .         ",
". . D , E F G H I J y K k k L M N O . .         ",
". . P Q R S R ~ 9 k T J U U V W X Y . .         ",
". . Z ` S }  ...+.@.0 z #.$.%.&.*.=.. .         ",
". . -.` ;.>.,.'.y A U A ).!.!.~.{.].. .         ",
". . * ^./.j (._.:.z <.[.).}.|.1.2.3.. .         ",
"  . c < $ w T k :.U 4.$.}.5.6.7.1 8..           ",
"  . . 9.w 0.a.4.$.M b.~.c.d.e.f.g.. .           ",
"    . . h.i.& j.k.).c.l.m.n.o.p.. . .           ",
"      . . q.r.$.b.s.t.=.u.v.g.. . w.x..         ",
"        . . y.p.z.6.7.A.B.8.. . w.C.D.E.F.      ",
"          . . . . . . . . . . . G.D.C.D.E.F.    ",
"              . . . . . .       . H.D.C.D.E..   ",
"                                  F.E.D.C.D.I.. ",
"                                    F.E.D.C.D.. ",
"                                      F.H.D.C.. ",
"                                        . G.J.. "};
